<svg xmlns="http://www.w3.org/2000/svg" width="67" height="69" viewBox="0 0 67 69">
  <g id="Groupe_6323" data-name="Groupe 6323" transform="translate(0 -113)">
    <rect id="Rectangle_1434" data-name="Rectangle 1434" width="67" height="69" rx="15" transform="translate(0 113)" fill="#fff"/>
    <g id="Icon_ionic-ios-menu" data-name="Icon ionic-ios-menu" transform="translate(15.452 134.557)">
      <path id="Tracé_10145" data-name="Tracé 10145" d="M39.133,13.774H6.006A1.693,1.693,0,0,1,4.5,11.95h0a1.693,1.693,0,0,1,1.506-1.825H39.133a1.693,1.693,0,0,1,1.506,1.825h0A1.693,1.693,0,0,1,39.133,13.774Z" transform="translate(-4.5 -10.125)" fill="#51aabc"/>
      <path id="Tracé_10146" data-name="Tracé 10146" d="M39.133,20.524H6.006A1.693,1.693,0,0,1,4.5,18.7h0a1.693,1.693,0,0,1,1.506-1.825H39.133A1.693,1.693,0,0,1,40.638,18.7h0A1.693,1.693,0,0,1,39.133,20.524Z" transform="translate(-4.5 -5.927)" fill="#51aabc"/>
      <path id="Tracé_10147" data-name="Tracé 10147" d="M39.133,27.274H6.006A1.693,1.693,0,0,1,4.5,25.45h0a1.693,1.693,0,0,1,1.506-1.825H39.133a1.693,1.693,0,0,1,1.506,1.825h0A1.693,1.693,0,0,1,39.133,27.274Z" transform="translate(-4.5 -1.729)" fill="#51aabc"/>
    </g>
  </g>
</svg>
